<?xml version="1.0" encoding="UTF-8" ?>
<svg width="128" height="128" viewBox="0 0 128 128" version="1.1" xmlns="http://www.w3.org/2000/svg">
<g>
<path fill="currentColor" opacity="1.00" d=" M 8.44 39.04 C 8.72 31.11 15.97 24.17 23.91 24.25 C 50.63 24.28 77.35 24.27 104.07 24.25 C 112.72 24.13 120.36 32.38 119.75 40.97 C 119.70 57.01 119.77 73.05 119.72 89.09 C 119.14 96.94 112.00 103.82 104.04 103.73 C 94.25 103.79 84.47 103.80 74.69 103.71 C 77.81 107.64 80.91 111.57 84.11 115.43 C 70.76 115.61 57.40 115.40 44.05 115.55 C 47.20 111.45 50.69 107.63 54.08 103.74 C 44.05 103.77 34.01 103.81 23.97 103.73 C 16.02 103.82 8.73 96.96 8.45 88.99 C 8.43 72.34 8.44 55.69 8.44 39.04 M 43.12 39.23 C 44.79 41.64 46.59 43.95 48.34 46.31 C 54.30 41.30 62.74 39.29 70.18 41.94 C 79.31 44.77 85.50 53.87 85.72 63.29 C 82.68 63.34 79.63 63.32 76.59 63.29 C 81.14 69.10 85.52 75.05 89.92 80.98 C 94.18 74.99 98.66 69.16 103.11 63.31 C 100.13 63.30 97.16 63.33 94.19 63.31 C 94.42 51.39 86.94 39.81 76.05 35.00 C 70.85 32.28 64.81 32.33 59.10 32.62 C 53.17 32.89 47.83 35.85 43.12 39.23 M 23.08 63.19 C 26.08 63.10 29.08 63.09 32.08 63.17 C 31.59 77.64 42.92 91.21 57.10 93.72 C 66.24 95.78 75.93 92.83 83.17 87.10 C 81.32 84.84 79.56 82.51 77.91 80.10 C 71.66 85.49 62.48 87.22 54.80 84.08 C 46.31 80.88 40.51 72.09 40.58 63.07 C 43.55 63.12 46.52 63.13 49.49 63.17 C 45.00 57.35 40.71 51.38 36.19 45.60 C 31.94 51.55 27.46 57.33 23.08 63.19 Z" />
</g>
</svg>
