<?xml version="1.0" encoding="UTF-8" ?>
<svg width="128" height="128" viewBox="0 0 128 128" version="1.1" xmlns="http://www.w3.org/2000/svg">
<g>
<path fill="currentColor" opacity="1.00" d=" M 8.44 39.02 C 8.74 31.07 16.03 24.13 23.98 24.25 C 50.66 24.28 77.34 24.27 104.01 24.25 C 112.68 24.09 120.36 32.36 119.75 40.97 C 119.72 56.30 119.72 71.64 119.75 86.98 C 120.38 95.60 112.75 103.83 104.06 103.73 C 94.27 103.79 84.48 103.80 74.68 103.71 C 77.79 107.65 80.95 111.53 84.07 115.46 C 70.73 115.57 57.39 115.42 44.05 115.54 C 47.20 111.45 50.69 107.62 54.09 103.73 C 44.05 103.77 34.00 103.81 23.96 103.73 C 16.00 103.81 8.71 96.94 8.45 88.96 C 8.43 72.31 8.44 55.66 8.44 39.02 M 62.47 33.61 C 60.78 34.24 60.08 36.04 59.24 37.48 C 49.99 54.52 40.67 71.52 31.48 88.59 C 29.86 91.17 32.06 94.81 35.07 94.69 C 54.37 94.74 73.69 94.75 92.99 94.69 C 95.98 94.78 98.13 91.13 96.52 88.57 C 87.08 71.01 77.56 53.49 68.05 35.96 C 67.18 33.86 64.59 32.59 62.47 33.61 Z" />
<path fill="currentColor" opacity="1.00" d=" M 62.17 50.23 C 64.38 49.58 67.60 50.12 67.90 52.88 C 68.05 58.94 68.02 65.02 67.92 71.09 C 67.48 75.24 60.49 75.11 60.18 70.96 C 60.03 65.31 60.14 59.65 60.13 54.00 C 59.96 52.42 60.79 50.99 62.17 50.23 Z" />
<path fill="currentColor" opacity="1.00" d=" M 61.44 79.39 C 63.41 77.43 66.95 78.52 67.88 81.01 C 69.43 84.19 65.07 87.94 62.15 85.89 C 59.65 84.86 59.33 80.97 61.44 79.39 Z" />
</g>
</svg>
