<?xml version="1.0" encoding="UTF-8" standalone="no"?>
<svg
   width="128"
   height="128"
   viewBox="0 0 128 128"
   version="1.1"
   id="svg1"
   xml:space="preserve"
   xmlns:xlink="http://www.w3.org/1999/xlink"
   xmlns="http://www.w3.org/2000/svg"
   xmlns:svg="http://www.w3.org/2000/svg"><defs
     id="defs1"><linearGradient
       id="linearGradient1"><stop
         style="stop-color:#1650ff;stop-opacity:1;"
         offset="0"
         id="stop1" /><stop
         style="stop-color:#30b4ff;stop-opacity:1;"
         offset="1"
         id="stop2" /></linearGradient><linearGradient
       xlink:href="#linearGradient1"
       id="linearGradient3"
       gradientUnits="userSpaceOnUse"
       x1="24.390337"
       y1="30.184444"
       x2="103.83168"
       y2="109.62579"
       gradientTransform="translate(-0.11085115,-5.8993534)" /></defs><g
     id="g9"><path
       id="path1"
       style="fill:url(#linearGradient3);stroke:#000000;stroke-width:4;stroke-linecap:square;stroke-linejoin:miter;stroke-dasharray:none;stroke-opacity:1"
       d="M 23.799316 18.350098 C 15.859316 18.270098 8.6091016 25.210625 8.3291016 33.140625 C 8.3291016 49.790625 8.3193555 66.440332 8.3393555 83.090332 C 8.6193556 91.060332 15.909375 97.921055 23.859375 97.831055 C 33.899375 97.911055 43.939238 97.871309 53.969238 97.841309 C 50.579238 101.73131 47.089453 105.55088 43.939453 109.65088 C 57.289453 109.50088 70.648535 109.71076 83.998535 109.53076 C 80.798535 105.67076 77.69959 101.74055 74.57959 97.810547 C 84.35959 97.900547 94.139198 97.891055 103.9292 97.831055 C 111.8892 97.921055 119.02889 91.039941 119.60889 83.189941 C 119.65889 67.149941 119.58965 51.111289 119.63965 35.071289 C 120.24965 26.481289 112.6085 18.230098 103.9585 18.350098 C 77.238495 18.370098 50.519316 18.380098 23.799316 18.350098 z " /><g
       id="g6"
       transform="translate(-156.97662,83.344726)"
       style="fill:#ffffff;stroke:none;stroke-width:0.5;stroke-dasharray:none;stroke-opacity:1"><path
         d="m 194.07559,-43.176324 c -4.25,5.95 -8.73035,11.729843 -13.11035,17.589843 3,-0.09 6,-0.100508 9,-0.02051 -0.49,14.47 10.83953,28.0407824 25.01953,30.5507824 9.14,2.06 18.82983,-0.891094 26.06983,-6.621094 -1.85,-2.26 -3.61026,-4.589023 -5.26026,-6.999023 -6.25,5.39 -15.42937,7.11998 -23.10937,3.97998 -8.49,-3.2 -14.2907,-11.9902544 -14.2207,-21.0102544 2.97,0.05 5.94064,0.05961 8.91064,0.09961 -4.49,-5.82 -8.77932,-11.789335 -13.29932,-17.569335 z"
         style="fill:#ffffff;stroke:none;stroke-width:0.5;stroke-linecap:square;stroke-dasharray:none;stroke-opacity:1"
         id="path6" /><path
         d="m 221.31143,-56.289605 c -1.45046,0.003 -2.89964,0.0608 -4.32714,0.1333 -5.93,0.27 -11.26998,3.229375 -15.97998,6.609375 1.67,2.41 3.4707,4.721055 5.2207,7.081055 5.96,-5.01 14.39935,-7.021094 21.83935,-4.371094 9.13,2.83 15.32053,11.930098 15.54053,21.350098 -3.04,0.05 -6.09037,0.03 -9.13037,0 4.55,5.81 8.93008,11.760918 13.33008,17.6909184 4.26,-5.9900004 8.74091,-11.8204114 13.19091,-17.6704114 -2.98,-0.01 -5.95089,0.02 -8.92089,0 0.23,-11.92 -7.24916,-23.49957 -18.13916,-28.30957 -3.9,-2.04 -8.27262,-2.522578 -12.62403,-2.513671 z"
         style="fill:#ffffff;stroke:none;stroke-width:0.5;stroke-linecap:square;stroke-dasharray:none;stroke-opacity:1"
         id="path5" /></g></g></svg>
